<svg xmlns="http://www.w3.org/2000/svg"><symbol id="location" viewBox="0 0 40 40"><path d="M20.01 36.5a.836.836 0 01-.693-.368L9.468 21.529a11.566 11.566 0 01-1.79-6.162C7.678 8.824 13.206 3.5 20 3.5c6.795 0 12.322 5.324 12.322 11.867a11.52 11.52 0 01-1.77 6.129l-9.851 14.636a.83.83 0 01-.691.368zM20 5.17c-5.873 0-10.652 4.574-10.652 10.197 0 1.854.525 3.669 1.52 5.251l9.14 13.55 9.146-13.581a9.821 9.821 0 001.499-5.22C30.652 9.744 25.873 5.17 20 5.17z"/><path d="M20 20.857c-3.159 0-5.728-2.482-5.728-5.535 0-3.051 2.569-5.534 5.728-5.534s5.729 2.483 5.729 5.534c0 3.053-2.571 5.535-5.729 5.535zm0-9.399c-2.237 0-4.057 1.734-4.057 3.864s1.82 3.865 4.057 3.865 4.058-1.734 4.058-3.865c0-2.13-1.822-3.864-4.058-3.864z"/></symbol><symbol id="phone" viewBox="0 0 64 64" fill="none"><path d="M11.11 8.4a2.62 2.62 0 00-2.53 2.78c.35 6 2 20.64 9.9 29.77 9.46 11 21.78 14.79 34.42 14.23a2.68 2.68 0 002.52-2.65v-9.61a4 4 0 00-3.09-3.86L46 37.66a4 4 0 00-4.16 1.69l-1.4 2.12a1 1 0 01-1.22.37C36 40.45 23.17 34.45 21.76 24.33a1 1 0 01.48-1l2.54-1.55a4 4 0 001.81-4.21l-1.39-6.44a4 4 0 00-4-3.12z"/></symbol><symbol id="clock" viewBox="0 0 90 90"><path d="M33 57h20c1.104 0 2-1.015 2-2.119v-24a2 2 0 00-4 0V53H33a2 2 0 000 4z"/><path d="M50.523 84.881c18.472 0 33.5-15.027 33.5-33.5 0-18.472-15.028-33.5-33.5-33.5s-33.5 15.028-33.5 33.5c0 18.473 15.029 33.5 33.5 33.5zm0-63c16.267 0 29.5 13.234 29.5 29.5s-13.233 29.5-29.5 29.5-29.5-13.234-29.5-29.5 13.234-29.5 29.5-29.5z"/></symbol></svg>