<svg width="24" height="24" fill="none" xmlns="http://www.w3.org/2000/svg"><path d="M12.046 22.811h-.005c-1.833 0-3.634-.458-5.234-1.327L1 23l1.554-5.65a10.842 10.842 0 01-1.462-5.45C1.094 5.89 6.008 1 12.046 1a10.91 10.91 0 017.749 3.197A10.81 10.81 0 0123 11.91c-.002 6.01-4.914 10.9-10.954 10.902z" fill="#25D366"/><path d="M17.565 14.502c-.069-.114-.251-.182-.525-.319-.273-.136-1.62-.795-1.87-.886-.25-.09-.433-.136-.616.136-.182.273-.707.887-.867 1.069-.16.181-.319.204-.592.068-.274-.137-1.156-.424-2.202-1.352-.813-.723-1.362-1.614-1.522-1.887-.16-.273-.017-.42.12-.556.123-.122.274-.318.41-.477.137-.16.183-.273.274-.455.091-.182.046-.34-.023-.477-.068-.136-.615-1.477-.844-2.023-.222-.53-.447-.459-.615-.467-.16-.008-.343-.01-.525-.01s-.479.068-.73.341c-.25.273-.958.932-.958 2.272 0 1.341.981 2.637 1.118 2.818.137.182 1.93 2.933 4.676 4.113a15.52 15.52 0 001.56.574c.655.207 1.252.178 1.724.108.526-.078 1.62-.659 1.847-1.295.228-.636.228-1.182.16-1.295z" fill="#fff"/></svg>