<svg width="32" height="32" viewBox="0 0 32 32" fill="none" xmlns="http://www.w3.org/2000/svg">
<path d="M16 0C7.16337 0 0 7.16337 0 16C0 24.8366 7.16337 32 16 32C24.8366 32 32 24.8366 32 16C32 7.16337 24.8366 0 16 0Z" fill="#40B3E0"/>
<path d="M23.7853 9.20387L20.9275 23.6122C20.9275 23.6122 20.5279 24.6115 19.4288 24.1319L12.834 19.0759L10.436 17.9169L6.39929 16.5579C6.39929 16.5579 5.77979 16.3381 5.71979 15.8585C5.65992 15.3789 6.41929 15.1191 6.41929 15.1191L22.4663 8.82412C22.4663 8.82412 23.7853 8.24462 23.7853 9.20387Z" fill="white"/>
<path d="M12.3272 23.4505C12.3272 23.4505 12.1347 23.4325 11.8948 22.673C11.6551 21.9136 10.4361 17.9168 10.4361 17.9168L20.1282 11.7618C20.1282 11.7618 20.6878 11.4221 20.6678 11.7618C20.6678 11.7618 20.7677 11.8217 20.468 12.1015C20.1682 12.3813 12.8541 18.956 12.8541 18.956" fill="#D2E5F1"/>
<path d="M15.3627 21.0145L12.7542 23.3927C12.7542 23.3927 12.5503 23.5475 12.3272 23.4505L12.8267 19.0328" fill="#B5CFE4"/>
</svg>
