<svg width="24" height="24" viewBox="0 0 24 24" fill="none" xmlns="http://www.w3.org/2000/svg">
<path d="M12.0461 22.811H12.0415C10.2082 22.8103 8.40683 22.3526 6.80688 21.484L1 23L2.55402 17.3509C1.59542 15.6976 1.09102 13.8222 1.09184 11.9009C1.09424 5.89018 6.00821 1 12.046 1C14.9763 1.00126 17.7266 2.13656 19.7947 4.19719C21.8628 6.25771 23.0012 8.99664 23 11.9095C22.9976 17.9188 18.0856 22.8085 12.0461 22.811Z" fill="#25D366"/>
<path d="M17.5648 14.5016C17.4964 14.3879 17.314 14.3198 17.0403 14.1834C16.7666 14.047 15.4209 13.3882 15.17 13.2972C14.9191 13.2063 14.7366 13.1609 14.5542 13.4335C14.3717 13.7062 13.8472 14.3198 13.6875 14.5016C13.5279 14.6833 13.3682 14.7061 13.0946 14.5697C12.8209 14.4334 11.939 14.1458 10.8935 13.2177C10.0798 12.4954 9.53053 11.6035 9.37087 11.3308C9.21121 11.0581 9.35385 10.9107 9.49087 10.7749C9.61401 10.6528 9.76459 10.4566 9.90144 10.2976C10.0383 10.1386 10.0839 10.0249 10.1751 9.84324C10.2664 9.66137 10.2208 9.50236 10.1523 9.366C10.0839 9.22965 9.53651 7.88887 9.30844 7.34345C9.08625 6.8123 8.86061 6.88425 8.69262 6.87586C8.53315 6.86789 8.35048 6.86621 8.16804 6.86621C7.98558 6.86621 7.68904 6.93439 7.43817 7.2071C7.18729 7.4798 6.48022 8.13881 6.48022 9.47949C6.48022 10.8203 7.46096 12.1155 7.59782 12.2973C7.73467 12.4792 9.52781 15.2304 12.2735 16.4103C12.9265 16.691 13.4363 16.8586 13.8338 16.9841C14.4895 17.1915 15.0862 17.1622 15.5577 17.0921C16.0836 17.0139 17.1771 16.4332 17.4052 15.7969C17.6332 15.1605 17.6332 14.6151 17.5648 14.5016Z" fill="white"/>
</svg>
